<svg xmlns="http://www.w3.org/2000/svg" id="svg0.29217249976794213" viewBox="0 0 1024 1024"><path d="M0 0 C337.92 0 675.84 0 1024 0 C1024 337.92 1024 675.84 1024 1024 C686.08 1024 348.16 1024 0 1024 C0 686.08 0 348.16 0 0 Z " transform="translate(0,0)" style="fill: #01111F;"/><path d="M0 0 C1.65 0.33 3.3 0.66 5 1 C5 2.32 5 3.64 5 5 C0.68881687 7.58670988 -3.19519944 9.46655301 -8 11 C-11.63871588 12.58205038 -14.64465623 14.44310427 -17.75 16.875 C-24.65742124 22.17025272 -32.30152138 25.29946084 -40.5546875 27.91015625 C-43.37081814 29.16526879 -44.8464525 30.82496001 -47 33 C-49.18359375 33.94140625 -49.18359375 33.94140625 -51.4375 34.5625 C-55.00207497 35.62952738 -57.8465832 36.99328022 -61 39 C-61.66 39 -62.32 39 -63 39 C-63 39.66 -63 40.32 -63 41 C-62.38511719 41.10957031 -61.77023437 41.21914063 -61.13671875 41.33203125 C-59.92435547 41.56986328 -59.92435547 41.56986328 -58.6875 41.8125 C-57.88699219 41.96332031 -57.08648438 42.11414063 -56.26171875 42.26953125 C-53.73679476 43.08500756 -52.61930266 43.91953671 -51 46 C-51 46.66 -51 47.32 -51 48 C-49.515 48.495 -49.515 48.495 -48 49 C-48.99 49.495 -48.99 49.495 -50 50 C-52.2977529 48.80823818 -54.43210655 47.42364675 -56.61328125 46.03125 C-59.52026216 44.77520588 -61.01473988 45.11234743 -64 46 C-64.66 45.01 -65.32 44.02 -66 43 C-66.556875 43.8971875 -66.556875 43.8971875 -67.125 44.8125 C-69.86169837 48.00531477 -73.12586967 49.63558577 -77.25 50.4375 C-79.20544714 50.83896015 -79.20544714 50.83896015 -80 52.9375 C-80.33 53.618125 -80.66 54.29875 -81 55 C-83.125 56.25 -83.125 56.25 -85 57 C-85 56.01 -85 55.02 -85 54 C-90.72380825 55.36531206 -95.26868584 57.633303 -100.3125 60.625 C-107.75402607 65 -107.75402607 65 -110 65 C-110 65.66 -110 66.32 -110 67 C-111.05058594 67.51949219 -112.10117187 68.03898438 -113.18359375 68.57421875 C-123.41592996 73.64496239 -123.41592996 73.64496239 -133.3984375 79.1875 C-135 80 -135 80 -137 80 C-137 80.66 -137 81.32 -137 82 C-138.06541016 82.39832031 -138.06541016 82.39832031 -139.15234375 82.8046875 C-140.07144531 83.15789062 -140.99054688 83.51109375 -141.9375 83.875 C-142.85402344 84.22304688 -143.77054687 84.57109375 -144.71484375 84.9296875 C-147.14941056 85.7819086 -147.14941056 85.7819086 -148 88 C-150.875 89.6875 -150.875 89.6875 -154 91 C-154.99 90.67 -155.98 90.34 -157 90 C-153.25 87 -153.25 87 -151 87 C-150.34 85.35 -149.68 83.7 -149 82 C-148.67 82.66 -148.34 83.32 -148 84 C-147.34 84 -146.68 84 -146 84 C-146 82.35 -146 80.7 -146 79 C-144.02 78.01 -144.02 78.01 -142 77 C-142.34227572 74.02934491 -142.34227572 74.02934491 -143 71 C-143.66 70.67 -144.32 70.34 -145 70 C-144.360625 69.87625 -143.72125 69.7525 -143.0625 69.625 C-142.0415625 69.315625 -142.0415625 69.315625 -141 69 C-140.67 68.34 -140.34 67.68 -140 67 C-139.01 67 -138.02 67 -137 67 C-137.33 68.65 -137.66 70.3 -138 72 C-137.34 72 -136.68 72 -136 72 C-136 72.66 -136 73.32 -136 74 C-132.37 73.01 -128.74 72.02 -125 71 C-125 70.34 -125 69.68 -125 69 C-123.73308493 68.32591692 -122.46129251 67.66099503 -121.1875 67 C-120.47980469 66.62875 -119.77210938 66.2575 -119.04296875 65.875 C-117 65 -117 65 -114 65 C-113.505 63.515 -113.505 63.515 -113 62 C-112.01 62 -111.02 62 -110 62 C-110 61.34 -110 60.68 -110 60 C-109.27425781 59.89429688 -108.54851562 59.78859375 -107.80078125 59.6796875 C-104.75890932 58.94149264 -102.78308471 57.85538981 -100.1875 56.125 C-99.39730469 55.61195313 -98.60710937 55.09890625 -97.79296875 54.5703125 C-97.20128906 54.05210937 -96.60960937 53.53390625 -96 53 C-96 52.01 -96 51.02 -96 50 C-96.99 49.505 -96.99 49.505 -98 49 C-97.34 47.02 -96.68 45.04 -96 43 C-88.25 42 -88.25 42 -86 42 C-86 41.34 -86 40.68 -86 40 C-85.34 40 -84.68 40 -84 40 C-84 40.66 -84 41.32 -84 42 C-83.34 42 -82.68 42 -82 42 C-81.34 40.68 -80.68 39.36 -80 38 C-78.68 38 -77.36 38 -76 38 C-76.94875 37.938125 -77.8975 37.87625 -78.875 37.8125 C-79.90625 37.544375 -80.9375 37.27625 -82 37 C-83.1875 34.625 -83.1875 34.625 -84 32 C-84.98095748 30.98131338 -85.97702078 29.97648017 -87 29 C-87 28.34 -87 27.68 -87 27 C-82.29092417 27.49569219 -79.52794663 28.67233443 -75.75 31.5 C-72.49973795 33.95426025 -72.49973795 33.95426025 -69 36 C-68.67 35.01 -68.34 34.02 -68 33 C-67.34 33 -66.68 33 -66 33 C-65.67 32.01 -65.34 31.02 -65 30 C-62 31 -62 31 -61 33 C-58.05908413 32.81584568 -58.05908413 32.81584568 -55 32 C-53.6830333 30.11629529 -53.6830333 30.11629529 -53 28 C-50.5244152 25.5244152 -48.30051247 25.07771836 -45 24 C-44.01 23.34 -43.02 22.68 -42 22 C-39.73828125 21.3671875 -39.73828125 21.3671875 -37.3125 20.875 C-36.50425781 20.70742188 -35.69601562 20.53984375 -34.86328125 20.3671875 C-34.24839844 20.24601562 -33.63351562 20.12484375 -33 20 C-33 19.34 -33 18.68 -33 18 C-29.58168085 15.4606772 -27.24223102 14.6363802 -23 15 C-23 14.34 -23 13.68 -23 13 C-17.78723574 10.33004757 -12.56285655 7.85428552 -7 6 C-6.26676204 3.98491642 -6.26676204 3.98491642 -6 2 C-4.02 2 -2.04 2 0 2 C0 1.34 0 0.68 0 0 Z " transform="translate(576,470)" style="fill: #022C44;"/><path d="M0 0 C5.53846154 0.61538462 5.53846154 0.61538462 7.875 2.5625 C8.24625 3.036875 8.6175 3.51125 9 4 C8.67 4.33 8.34 4.66 8 5 C10.97 6.98 13.94 8.96 17 11 C16 16 16 16 14.00976562 17.58984375 C13.15060547 18.03457031 12.29144531 18.47929688 11.40625 18.9375 C10.4575 19.44023438 9.50875 19.94296875 8.53125 20.4609375 C7.5309375 20.96882812 6.530625 21.47671875 5.5 22 C3.55198082 23.02063771 1.60406305 24.04146897 -0.34375 25.0625 C-1.29290283 25.55395508 -2.24205566 26.04541016 -3.2199707 26.55175781 C-5.85158816 27.9226856 -8.46939761 29.31323025 -11.07421875 30.734375 C-11.77893311 31.11819336 -12.48364746 31.50201172 -13.2097168 31.89746094 C-15.47684759 33.29366476 -17.15949553 35.09132869 -19 37 C-21.25 37.75 -21.25 37.75 -23 38 C-23 38.66 -23 39.32 -23 40 C-24.05058594 40.51949219 -25.10117187 41.03898438 -26.18359375 41.57421875 C-36.41592996 46.64496239 -36.41592996 46.64496239 -46.3984375 52.1875 C-48 53 -48 53 -50 53 C-50 53.66 -50 54.32 -50 55 C-51.06541016 55.39832031 -51.06541016 55.39832031 -52.15234375 55.8046875 C-53.07144531 56.15789063 -53.99054688 56.51109375 -54.9375 56.875 C-55.85402344 57.22304688 -56.77054687 57.57109375 -57.71484375 57.9296875 C-60.14941056 58.7819086 -60.14941056 58.7819086 -61 61 C-63.875 62.6875 -63.875 62.6875 -67 64 C-67.99 63.67 -68.98 63.34 -70 63 C-66.25 60 -66.25 60 -64 60 C-63.34 58.35 -62.68 56.7 -62 55 C-61.67 55.66 -61.34 56.32 -61 57 C-60.34 57 -59.68 57 -59 57 C-59 55.35 -59 53.7 -59 52 C-57.68 51.34 -56.36 50.68 -55 50 C-55.34227572 47.02934491 -55.34227572 47.02934491 -56 44 C-56.66 43.67 -57.32 43.34 -58 43 C-57.360625 42.87625 -56.72125 42.7525 -56.0625 42.625 C-55.381875 42.41875 -54.70125 42.2125 -54 42 C-53.67 41.34 -53.34 40.68 -53 40 C-52.01 40 -51.02 40 -50 40 C-50.33 41.65 -50.66 43.3 -51 45 C-50.34 45 -49.68 45 -49 45 C-49 45.66 -49 46.32 -49 47 C-45.37 46.01 -41.74 45.02 -38 44 C-38 43.34 -38 42.68 -38 42 C-36.73308493 41.32591692 -35.46129251 40.66099503 -34.1875 40 C-33.47980469 39.62875 -32.77210938 39.2575 -32.04296875 38.875 C-30 38 -30 38 -27 38 C-26.67 37.01 -26.34 36.02 -26 35 C-25.01 35 -24.02 35 -23 35 C-23 34.34 -23 33.68 -23 33 C-22.27425781 32.89429688 -21.54851562 32.78859375 -20.80078125 32.6796875 C-17.75890932 31.94149264 -15.78308471 30.85538981 -13.1875 29.125 C-12.39730469 28.61195313 -11.60710937 28.09890625 -10.79296875 27.5703125 C-10.20128906 27.05210937 -9.60960937 26.53390625 -9 26 C-9 25.01 -9 24.02 -9 23 C-9.66 22.67 -10.32 22.34 -11 22 C-10.34 20.02 -9.68 18.04 -9 16 C-1.25 15 -1.25 15 1 15 C1 14.34 1 13.68 1 13 C1.66 13 2.32 13 3 13 C3 13.66 3 14.32 3 15 C3.66 15 4.32 15 5 15 C5.66 13.68 6.32 12.36 7 11 C8.32 11 9.64 11 11 11 C10.05125 10.938125 9.1025 10.87625 8.125 10.8125 C7.09375 10.544375 6.0625 10.27625 5 10 C3.8125 7.625 3.8125 7.625 3 5 C2.01904252 3.98131338 1.02297922 2.97648017 0 2 C0 1.34 0 0.68 0 0 Z " transform="translate(489,497)" style="fill: #012235;"/><path d="M0 0 C0.66 0.33 1.32 0.66 2 1 C1.67 1.66 1.34 2.32 1 3 C2.98 2.34 4.96 1.68 7 1 C4.82575883 3.50037734 3.26954202 4.43628586 0 5 C0 5.66 0 6.32 0 7 C-1.05058594 7.51949219 -2.10117187 8.03898438 -3.18359375 8.57421875 C-13.41592996 13.64496239 -13.41592996 13.64496239 -23.3984375 19.1875 C-25 20 -25 20 -27 20 C-27 20.66 -27 21.32 -27 22 C-27.71027344 22.26554688 -28.42054688 22.53109375 -29.15234375 22.8046875 C-30.07144531 23.15789063 -30.99054688 23.51109375 -31.9375 23.875 C-32.85402344 24.22304688 -33.77054687 24.57109375 -34.71484375 24.9296875 C-37.14941056 25.7819086 -37.14941056 25.7819086 -38 28 C-40.875 29.6875 -40.875 29.6875 -44 31 C-44.99 30.67 -45.98 30.34 -47 30 C-43.25 27 -43.25 27 -41 27 C-40.34 25.35 -39.68 23.7 -39 22 C-38.67 22.66 -38.34 23.32 -38 24 C-37.34 24 -36.68 24 -36 24 C-36 22.35 -36 20.7 -36 19 C-34.68 18.34 -33.36 17.68 -32 17 C-32.34227572 14.02934491 -32.34227572 14.02934491 -33 11 C-33.66 10.67 -34.32 10.34 -35 10 C-34.360625 9.87625 -33.72125 9.7525 -33.0625 9.625 C-32.381875 9.41875 -31.70125 9.2125 -31 9 C-30.67 8.34 -30.34 7.68 -30 7 C-29.01 7 -28.02 7 -27 7 C-27.33 8.65 -27.66 10.3 -28 12 C-27.34 12 -26.68 12 -26 12 C-26 12.66 -26 13.32 -26 14 C-22.37 13.01 -18.74 12.02 -15 11 C-15 10.34 -15 9.68 -15 9 C-13.73308493 8.32591692 -12.46129251 7.66099503 -11.1875 7 C-10.47980469 6.62875 -9.77210938 6.2575 -9.04296875 5.875 C-7 5 -7 5 -4 5 C-3.67 4.01 -3.34 3.02 -3 2 C-2.01 2 -1.02 2 0 2 C0 1.34 0 0.68 0 0 Z " transform="translate(466,530)" style="fill: #051B2D;"/><path d="M0 0 C0.66 0.33 1.32 0.66 2 1 C-0.28874173 2.33858524 -2.58069656 3.67101014 -4.875 5 C-5.52597656 5.3815625 -6.17695312 5.763125 -6.84765625 6.15625 C-11.7734375 9 -11.7734375 9 -14 9 C-14 9.66 -14 10.32 -14 11 C-13.07767578 11.16435547 -13.07767578 11.16435547 -12.13671875 11.33203125 C-11.32847656 11.49058594 -10.52023437 11.64914062 -9.6875 11.8125 C-8.88699219 11.96332031 -8.08648438 12.11414063 -7.26171875 12.26953125 C-4.73679476 13.08500756 -3.61930266 13.91953671 -2 16 C-2 16.66 -2 17.32 -2 18 C-1.01 18.33 -0.02 18.66 1 19 C0.01 19.495 0.01 19.495 -1 20 C-3.2977529 18.80823818 -5.43210655 17.42364675 -7.61328125 16.03125 C-10.52026216 14.77520588 -12.01473988 15.11234743 -15 16 C-15.66 15.01 -16.32 14.02 -17 13 C-17.37125 13.598125 -17.7425 14.19625 -18.125 14.8125 C-20.86169837 18.00531477 -24.12586967 19.63558577 -28.25 20.4375 C-30.20544714 20.83896015 -30.20544714 20.83896015 -31 22.9375 C-31.33 23.618125 -31.66 24.29875 -32 25 C-34.125 26.25 -34.125 26.25 -36 27 C-36 26.01 -36 25.02 -36 24 C-41.3054864 25.24170958 -45.43163313 27.23275346 -50.08203125 30.07421875 C-51.03142578 30.53248047 -51.03142578 30.53248047 -52 31 C-52.66 30.67 -53.32 30.34 -54 30 C-31.19872014 16.91172879 -31.19872014 16.91172879 -22 12 C-22.39904647 8.20401922 -22.39904647 8.20401922 -24.84765625 5.41796875 C-25.57855469 5.01191406 -26.30945313 4.60585938 -27.0625 4.1875 C-27.79597656 3.76855469 -28.52945312 3.34960938 -29.28515625 2.91796875 C-29.85105469 2.61503906 -30.41695313 2.31210937 -31 2 C-30.01 1.67 -29.02 1.34 -28 1 C-26.989375 1.804375 -25.97875 2.60875 -24.9375 3.4375 C-21.20401983 6.22391287 -18.32310903 6.77652922 -13.703125 6.578125 C-9.40269294 5.65837941 -5.94915409 3.53206954 -2.25 1.21484375 C-1.5075 0.81394531 -0.765 0.41304688 0 0 Z " transform="translate(527,500)" style="fill: #1C576C;"/><path d="M0 0 C5.2047296 1.48009498 9.41830233 3.83996439 14 6.625 C15.49942694 7.52439357 16.99943697 8.42281568 18.5 9.3203125 C19.24894531 9.76922852 19.99789062 10.21814453 20.76953125 10.68066406 C22.89433252 11.93749704 25.0340475 13.16022865 27.1875 14.3671875 C27.83203125 14.7286084 28.4765625 15.0900293 29.140625 15.46240234 C30.90455085 16.44673597 32.67095675 17.42662147 34.4375 18.40625 C37 20 37 20 38 22 C34.49262765 20.973452 31.55604595 19.7795318 28.5 17.8125 C25.16666413 15.74612213 25.16666413 15.74612213 21.6875 16 C18.87790192 16.74642136 18.87790192 16.74642136 17.625 19.0625 C17.315625 20.0215625 17.315625 20.0215625 17 21 C16.34 21 15.68 21 15 21 C14.67 21.99 14.34 22.98 14 24 C13.67 23.01 13.34 22.02 13 21 C12.401875 21.350625 11.80375 21.70125 11.1875 22.0625 C9 23 9 23 6 22 C6 21.01 6 20.02 6 19 C7.32 19 8.64 19 10 19 C11.37553494 15.57330419 11.37553494 15.57330419 12 12 C12 11.01 12 10.02 12 9 C11.01 9 10.02 9 9 9 C9 8.34 9 7.68 9 7 C8.01 7.33 7.02 7.66 6 8 C6 6.68 6 5.36 6 4 C5.195625 3.71125 4.39125 3.4225 3.5625 3.125 C1 2 1 2 0 0 Z " transform="translate(550,533)" style="fill: #255C71;"/><path d="M0 0 C1.45903258 0.30921884 2.91720722 0.62248799 4.375 0.9375 C5.18710937 1.11152344 5.99921875 1.28554688 6.8359375 1.46484375 C9 2 9 2 11 3 C11 3.99 11 4.98 11 6 C12.32 6 13.64 6 15 6 C15 6.66 15 7.32 15 8 C15.99 8 16.98 8 18 8 C18 8.66 18 9.32 18 10 C20.475 10.495 20.475 10.495 23 11 C23 11.66 23 12.32 23 13 C24.051875 13.103125 25.10375 13.20625 26.1875 13.3125 C29.90104094 13.98215492 31.99303465 14.78899607 35 17 C35.495 17.99 35.495 17.99 36 19 C36.99 19.33 37.98 19.66 39 20 C39 20.66 39 21.32 39 22 C38.01 22.33 37.02 22.66 36 23 C36 22.34 36 21.68 36 21 C35.27425781 21.0515625 34.54851563 21.103125 33.80078125 21.15625 C30.58408614 20.976797 28.93384423 20.13960849 26.1875 18.5 C25.00220703 17.80390625 25.00220703 17.80390625 23.79296875 17.09375 C23.20128906 16.7328125 22.60960937 16.371875 22 16 C22 15.34 22 14.68 22 14 C18.7 13.67 15.4 13.34 12 13 C12 12.01 12 11.02 12 10 C10.88625 9.566875 10.88625 9.566875 9.75 9.125 C7.43260203 8.17697356 5.22082885 7.15154089 3 6 C3 5.01 3 4.02 3 3 C2.01 3 1.02 3 0 3 C0 2.01 0 1.02 0 0 Z " transform="translate(584,482)" style="fill: #23677D;"/><path d="M0 0 C0 0.99 0 1.98 0 3 C-0.70125 3.36351562 -1.4025 3.72703125 -2.125 4.1015625 C-6.73455659 6.54412645 -11.14017185 8.95950506 -15.25 12.1875 C-18.02226085 14.35053417 -20.62175932 15.8766596 -23.93359375 17.14453125 C-27.87931375 18.77801458 -31.63240679 20.83678694 -35.42578125 22.79296875 C-38 24 -38 24 -40 24 C-40 24.66 -40 25.32 -40 26 C-41.19238281 26.55429687 -42.38476562 27.10859375 -43.61328125 27.6796875 C-45.1797473 28.41133032 -46.74615026 29.14310821 -48.3125 29.875 C-49.09818359 30.23980469 -49.88386719 30.60460937 -50.69335938 30.98046875 C-51.45068359 31.33496094 -52.20800781 31.68945312 -52.98828125 32.0546875 C-54.03302612 32.54171143 -54.03302612 32.54171143 -55.09887695 33.03857422 C-57.240819 34.07423509 -57.240819 34.07423509 -60 36 C-60.99 35.67 -61.98 35.34 -63 35 C-57.67146081 31.99141451 -52.33804197 28.99169177 -47 26 C-45.94554687 25.40832031 -44.89109375 24.81664062 -43.8046875 24.20703125 C-38.95434788 21.51930745 -34.13816896 19.08227193 -28.97265625 17.0546875 C-26.86595423 16.05683312 -26.86595423 16.05683312 -25.1328125 14.078125 C-22.57732057 11.58815851 -20.03979613 10.37661647 -16.8125 8.875 C-12.65760204 7.2348517 -12.65760204 7.2348517 -10 4 C-7.96875 3.18359375 -7.96875 3.18359375 -5.5 2.4375 C-2.48668507 1.67451663 -2.48668507 1.67451663 0 0 Z M-64 36 C-63.67 36.66 -63.34 37.32 -63 38 C-63.99 37.67 -64.98 37.34 -66 37 C-65.34 36.67 -64.68 36.34 -64 36 Z " transform="translate(339,518)" style="fill: #0A1F2C;"/><path d="M0 0 C1.32 0 2.64 0 4 0 C4 0.66 4 1.32 4 2 C6.97 2.99 9.94 3.98 13 5 C13 5.99 13 6.98 13 8 C13.86625 8.103125 14.7325 8.20625 15.625 8.3125 C19.16683123 9.03398414 21.84312042 10.27123261 25 12 C25 13.32 25 14.64 25 16 C26.32 16.33 27.64 16.66 29 17 C29 17.66 29 18.32 29 19 C27.56068883 18.54738642 26.12361001 18.08767021 24.6875 17.625 C23.88699219 17.36976563 23.08648437 17.11453125 22.26171875 16.8515625 C20 16 20 16 17 14 C17 13.34 17 12.68 17 12 C16.0925 12.04125 15.185 12.0825 14.25 12.125 C11.1217954 12.00468444 9.61385994 11.6085292 7 10 C7 9.34 7 8.68 7 8 C6.21625 7.690625 5.4325 7.38125 4.625 7.0625 C2 6 2 6 0 5 C0 3.35 0 1.7 0 0 Z " transform="translate(459,478)" style="fill: #074762;"/><path d="M0 0 C0.66 0 1.32 0 2 0 C2.08226668 3.04386724 1.97608217 5.07175348 1 8 C-1.0625 8.6875 -1.0625 8.6875 -3 9 C-3 9.66 -3 10.32 -3 11 C-3.66 11 -4.32 11 -5 11 C-5 11.99 -5 12.98 -5 14 C-7.62214328 15.50519387 -10.24744208 17.00431319 -12.875 18.5 C-13.62136719 18.92925781 -14.36773437 19.35851562 -15.13671875 19.80078125 C-15.85214844 20.20683594 -16.56757813 20.61289062 -17.3046875 21.03125 C-17.96452637 21.40830078 -18.62436523 21.78535156 -19.30419922 22.17382812 C-21 23 -21 23 -23 23 C-23 22.34 -23 21.68 -23 21 C-22.24074219 20.61328125 -21.48148437 20.2265625 -20.69921875 19.828125 C-19.70535156 19.30734375 -18.71148437 18.7865625 -17.6875 18.25 C-16.70136719 17.73953125 -15.71523438 17.2290625 -14.69921875 16.703125 C-12.04549724 15.02870737 -10.66897803 13.62023855 -9 11 C-9.99 10.34 -10.98 9.68 -12 9 C-11.34 7.02 -10.68 5.04 -10 3 C-2.25 2 -2.25 2 0 2 C0 1.34 0 0.68 0 0 Z " transform="translate(490,510)" style="fill: #022334;"/><path d="M0 0 C0.66 0.33 1.32 0.66 2 1 C1.67 1.66 1.34 2.32 1 3 C2.98 2.34 4.96 1.68 7 1 C4.82575883 3.50037734 3.26954202 4.43628586 0 5 C0 5.66 0 6.32 0 7 C-1.54107422 7.76183594 -1.54107422 7.76183594 -3.11328125 8.5390625 C-4.51319466 9.23402496 -5.9129214 9.92936352 -7.3125 10.625 C-8.03783936 10.98456787 -8.76317871 11.34413574 -9.51049805 11.71459961 C-14.73577859 14.32175175 -19.83149087 17.09973045 -24.86328125 20.06640625 C-27 21 -27 21 -30 20 C-25.25 17 -25.25 17 -23 17 C-23 15.68 -23 14.36 -23 13 C-20.36 12.34 -17.72 11.68 -15 11 C-15 10.34 -15 9.68 -15 9 C-13.73308493 8.32591692 -12.46129251 7.66099503 -11.1875 7 C-10.47980469 6.62875 -9.77210938 6.2575 -9.04296875 5.875 C-7 5 -7 5 -4 5 C-3.67 4.01 -3.34 3.02 -3 2 C-2.01 2 -1.02 2 0 2 C0 1.34 0 0.68 0 0 Z " transform="translate(466,530)" style="fill: #206E85;"/><path d="M0 0 C2.97 0 5.94 0 9 0 C6.6413417 2.3586583 5.16891452 3.63183789 2.3828125 5.19140625 C1.34833984 5.77245117 1.34833984 5.77245117 0.29296875 6.36523438 C-0.42246094 6.76033203 -1.13789062 7.15542969 -1.875 7.5625 C-2.58269531 7.96146484 -3.29039062 8.36042969 -4.01953125 8.77148438 C-7.60656738 10.77207529 -11.12762646 12.59531548 -15 14 C-15 14.66 -15 15.32 -15 16 C-16.65 16.33 -18.3 16.66 -20 17 C-19.67 15.68 -19.34 14.36 -19 13 C-19.66 13 -20.32 13 -21 13 C-21 11.68 -21 10.36 -21 9 C-19.02 8.67 -17.04 8.34 -15 8 C-14.67 8.66 -14.34 9.32 -14 10 C-13.01 9.01 -12.02 8.02 -11 7 C-10.01 7.33 -9.02 7.66 -8 8 C-4.3031495 6.64197328 -2.44671994 5.87313444 -0.625 2.3125 C-0.315625 1.1678125 -0.315625 1.1678125 0 0 Z " transform="translate(650,497)" style="fill: #032132;"/><path d="M0 0 C0 0.99 0 1.98 0 3 C-0.77085937 3.40992188 -1.54171875 3.81984375 -2.3359375 4.2421875 C-3.33882813 4.78101563 -4.34171875 5.31984375 -5.375 5.875 C-6.87160156 6.67550781 -6.87160156 6.67550781 -8.3984375 7.4921875 C-11.05348395 8.8820138 -11.05348395 8.8820138 -13 11 C-14.6809836 11.72663207 -16.36351282 12.45008229 -18.05664062 13.14794922 C-21.25503473 14.5502602 -24.23659842 16.30468241 -27.25 18.0625 C-27.86101562 18.41376953 -28.47203125 18.76503906 -29.1015625 19.12695312 C-31.7919031 20.68065419 -34.41406157 22.27604105 -37 24 C-37.99 23.67 -38.98 23.34 -40 23 C-35.96221945 18.67380655 -32.82092052 16.97015342 -27 16 C-27 15.34 -27 14.68 -27 14 C-25.02 13.67 -23.04 13.34 -21 13 C-21 12.34 -21 11.68 -21 11 C-18.25040459 9.54090289 -15.50025279 8.08285758 -12.75 6.625 C-11.58404297 6.00625 -11.58404297 6.00625 -10.39453125 5.375 C-9.64042969 4.97539063 -8.88632812 4.57578125 -8.109375 4.1640625 C-7.41811523 3.79748535 -6.72685547 3.4309082 -6.01464844 3.05322266 C-4.02130846 2.01113969 -2.01494463 0.99957057 0 0 Z " transform="translate(403,555)" style="fill: #09212F;"/><path d="M0 0 C0 0.66 0 1.32 0 2 C-2.45570175 3.33838733 -4.91429916 4.67086232 -7.375 6 C-8.07367187 6.3815625 -8.77234375 6.763125 -9.4921875 7.15625 C-14.7734375 10 -14.7734375 10 -17 10 C-17 10.66 -17 11.32 -17 12 C-17.56589844 12.26554687 -18.13179687 12.53109375 -18.71484375 12.8046875 C-19.44832031 13.15789062 -20.18179688 13.51109375 -20.9375 13.875 C-21.66839844 14.22304688 -22.39929688 14.57109375 -23.15234375 14.9296875 C-25.16332459 15.8684977 -25.16332459 15.8684977 -26 18 C-26.66 18 -27.32 18 -28 18 C-28.33 18.66 -28.66 19.32 -29 20 C-29.99 19.67 -30.98 19.34 -32 19 C-32 19.66 -32 20.32 -32 21 C-33.98 21.33 -35.96 21.66 -38 22 C-34.85112846 18.38672654 -30.64165388 16.26867065 -26.5625 13.87304688 C-23.21567753 12.00445704 -23.21567753 12.00445704 -21 9 C-19.35 9 -17.7 9 -16 9 C-16 8.34 -16 7.68 -16 7 C-15.34 7 -14.68 7 -14 7 C-14 6.34 -14 5.68 -14 5 C-9.73098823 1.98657993 -5.2635198 0 0 0 Z " transform="translate(697,475)" style="fill: #0C3C52;"/><path d="M0 0 C0.66 0.33 1.32 0.66 2 1 C1.525625 1.66 1.05125 2.32 0.5625 3 C-1.41317854 6.7933028 -1.64027463 9.75524068 -2 14 C-3.32 13.67 -4.64 13.34 -6 13 C-6 12.34 -6 11.68 -6 11 C-9.45907651 10.13523087 -11.59235658 10.09129509 -15 11 C-15.99 10.67 -16.98 10.34 -18 10 C-15.04894616 8.2995208 -12.08809878 6.61688907 -9.125 4.9375 C-8.28324219 4.45216797 -7.44148438 3.96683594 -6.57421875 3.46679688 C-5.76855469 3.01240234 -4.96289062 2.55800781 -4.1328125 2.08984375 C-3.38918457 1.66566162 -2.64555664 1.24147949 -1.87939453 0.80444336 C-1.25919434 0.53897705 -0.63899414 0.27351074 0 0 Z " transform="translate(457,540)" style="fill: #08263A;"/><path d="M0 0 C0.99 0 1.98 0 3 0 C3 0.66 3 1.32 3 2 C0.4385343 4.29648649 -0.47967572 5 -4 5 C-4.33257813 5.91072266 -4.33257813 5.91072266 -4.671875 6.83984375 C-6.43770273 9.71191061 -8.15952684 10.28324676 -11.25 11.5625 C-12.23097656 11.98015625 -13.21195313 12.3978125 -14.22265625 12.828125 C-15.13917969 13.21484375 -16.05570313 13.6015625 -17 14 C-19.02019068 14.96601148 -21.00791835 15.97703915 -23 17 C-23.33 15.68 -23.66 14.36 -24 13 C-23.25109497 12.60675537 -23.25109497 12.60675537 -22.48706055 12.20556641 C-20.21964306 11.01374241 -17.95356175 9.81939956 -15.6875 8.625 C-14.50897461 8.00625 -14.50897461 8.00625 -13.30664062 7.375 C-12.54931641 6.97539062 -11.79199219 6.57578125 -11.01171875 6.1640625 C-10.31522217 5.79748535 -9.61872559 5.4309082 -8.90112305 5.05322266 C-7.21744775 4.12046611 -5.60151793 3.06767862 -4 2 C-2.68 2 -1.36 2 0 2 C0 1.34 0 0.68 0 0 Z " transform="translate(665,494)" style="fill: #012437;"/><path d="M0 0 C1.45903258 0.30921884 2.91720722 0.62248799 4.375 0.9375 C5.18710937 1.11152344 5.99921875 1.28554688 6.8359375 1.46484375 C9 2 9 2 11 3 C11 3.99 11 4.98 11 6 C12.32 6 13.64 6 15 6 C15 6.66 15 7.32 15 8 C15.99 8.33 16.98 8.66 18 9 C17.01 9 16.02 9 15 9 C15 9.66 15 10.32 15 11 C15.99 11 16.98 11 18 11 C17.67 11.66 17.34 12.32 17 13 C15.35 13 13.7 13 12 13 C12 12.01 12 11.02 12 10 C10.88625 9.566875 10.88625 9.566875 9.75 9.125 C7.43260203 8.17697356 5.22082885 7.15154089 3 6 C3 5.01 3 4.02 3 3 C2.01 3 1.02 3 0 3 C0 2.01 0 1.02 0 0 Z " transform="translate(584,482)" style="fill: #064960;"/><path d="M0 0 C0 1.32 0 2.64 0 4 C-1.32 3.67 -2.64 3.34 -4 3 C-4.185625 3.5775 -4.37125 4.155 -4.5625 4.75 C-7.36457662 9.13585906 -13.16160383 11.38720128 -18 13 C-18.99 13 -19.98 13 -21 13 C-21 12.01 -21 11.02 -21 10 C-19.68 10 -18.36 10 -17 10 C-17 9.01 -17 8.02 -17 7 C-15.68 7 -14.36 7 -13 7 C-13 6.34 -13 5.68 -13 5 C-11.68 5 -10.36 5 -9 5 C-8.67 4.01 -8.34 3.02 -8 2 C-5.01540871 0.04457812 -3.73585209 0 0 0 Z " transform="translate(543,561)" style="fill: #134C62;"/><path d="M0 0 C5.40647135 1.02122237 10.21940105 2.13164063 15 5 C15.33 5.66 15.66 6.32 16 7 C17.86814983 8.10413979 17.86814983 8.10413979 20.1484375 9.12890625 C20.98890625 9.52400391 21.829375 9.91910156 22.6953125 10.32617188 C23.57960938 10.73416016 24.46390625 11.14214844 25.375 11.5625 C26.2515625 11.97435547 27.128125 12.38621094 28.03125 12.81054688 C31.33350552 14.35311425 34.53933203 15.84644401 38 17 C38 17.66 38 18.32 38 19 C33.17051494 18.46339055 29.82439695 17.03482343 25.625 14.625 C20.81740299 11.94309881 16.21600318 9.73866773 11 8 C11 7.34 11 6.68 11 6 C9.948125 5.5978125 9.948125 5.5978125 8.875 5.1875 C5.8350176 3.9318551 2.9272226 2.49764877 0 1 C0 0.67 0 0.34 0 0 Z " transform="translate(766,464)" style="fill: #184458;"/><path d="M0 0 C0.66 0.33 1.32 0.66 2 1 C-0.28874173 2.33858524 -2.58069656 3.67101014 -4.875 5 C-5.52597656 5.3815625 -6.17695312 5.763125 -6.84765625 6.15625 C-11.7734375 9 -11.7734375 9 -14 9 C-14 9.66 -14 10.32 -14 11 C-13.07767578 11.16435547 -13.07767578 11.16435547 -12.13671875 11.33203125 C-11.32847656 11.49058594 -10.52023437 11.64914062 -9.6875 11.8125 C-8.88699219 11.96332031 -8.08648438 12.11414063 -7.26171875 12.26953125 C-4.73679476 13.08500756 -3.61930266 13.91953671 -2 16 C-2 16.66 -2 17.32 -2 18 C-1.01 18.33 -0.02 18.66 1 19 C0.34 19.33 -0.32 19.66 -1 20 C-3.39010975 18.80050254 -5.64735601 17.55602892 -7.9375 16.1875 C-8.57107422 15.81818359 -9.20464844 15.44886719 -9.85742188 15.06835938 C-12.62443894 13.44771952 -15.33141971 11.77905353 -18 10 C-15.04894616 8.2995208 -12.08809878 6.61688907 -9.125 4.9375 C-8.28324219 4.45216797 -7.44148437 3.96683594 -6.57421875 3.46679688 C-5.76855469 3.01240234 -4.96289062 2.55800781 -4.1328125 2.08984375 C-3.38918457 1.66566162 -2.64555664 1.24147949 -1.87939453 0.80444336 C-1.25919434 0.53897705 -0.63899414 0.27351074 0 0 Z " transform="translate(527,500)" style="fill: #3995B0;"/><path d="M0 0 C0.66 0.33 1.32 0.66 2 1 C-1.1514415 3.76711936 -4.12952934 6.17099747 -7.8125 8.1875 C-11.05065928 9.63760352 -11.05065928 9.63760352 -12 12 C-14.32156597 12.40729228 -16.6568787 12.74438677 -19 13 C-19 13.66 -19 14.32 -19 15 C-19.99 15.33 -20.98 15.66 -22 16 C-22 15.34 -22 14.68 -22 14 C-21.34 14 -20.68 14 -20 14 C-19.67 13.01 -19.34 12.02 -19 11 C-13.77777778 8 -13.77777778 8 -11 8 C-11 7.34 -11 6.68 -11 6 C-9.21385682 4.96953278 -7.42089982 3.95086764 -5.625 2.9375 C-4.62726562 2.36902344 -3.62953125 1.80054688 -2.6015625 1.21484375 C-1.74304688 0.81394531 -0.88453125 0.41304688 0 0 Z " transform="translate(691,479)" style="fill: #001E30;"/><path d="M0 0 C1.65 0.33 3.3 0.66 5 1 C5 2.32 5 3.64 5 5 C-1.625 9 -1.625 9 -5 9 C-5 8.34 -5 7.68 -5 7 C-3.35 7 -1.7 7 0 7 C0 6.01 0 5.02 0 4 C-2.31 4.66 -4.62 5.32 -7 6 C-6.67 4.68 -6.34 3.36 -6 2 C-4.02 2 -2.04 2 0 2 C0 1.34 0 0.68 0 0 Z " transform="translate(576,470)" style="fill: #013042;"/><path d="M0 0 C0.66 0.33 1.32 0.66 2 1 C0.625 3 0.625 3 -1 5 C-1.66 5 -2.32 5 -3 5 C-6.0497509 5.68314723 -6.0497509 5.68314723 -9 7 C-9.309375 7.66 -9.61875 8.32 -9.9375 9 C-11 11 -11 11 -14.625 12.25 C-15.73875 12.4975 -16.8525 12.745 -18 13 C-18.66 12.34 -19.32 11.68 -20 11 C-17.35261084 9.5393715 -16.10551666 9 -13 9 C-13 8.34 -13 7.68 -13 7 C-10.88002166 5.80266012 -8.75486324 4.61701287 -6.625 3.4375 C-6.02171875 3.09525391 -5.4184375 2.75300781 -4.796875 2.40039062 C-3.23021759 1.53872905 -1.61709138 0.76281817 0 0 Z " transform="translate(479,528)" style="fill: #002D41;"/><path d="M0 0 C2.91441998 0.4483723 4.31034457 1.22570514 6.75 3 C10.74764982 5.4600922 13.36804118 5.68055456 18 6 C14.33494586 9.99824088 10.88887148 12.60168569 6 15 C5.34 14.67 4.68 14.34 4 14 C5.65 13.01 7.3 12.02 9 11 C9.12213894 8.65851769 9.12213894 8.65851769 8 6 C5.98996863 4.46591686 3.92436015 3.24270265 1.71484375 2.015625 C1.14894531 1.68046875 0.58304687 1.3453125 0 1 C0 0.67 0 0.34 0 0 Z " transform="translate(496,501)" style="fill: #1E627A;"/><path d="M0 0 C0.99 0.66 1.98 1.32 3 2 C3 2.99 3 3.98 3 5 C4.30806361 7.10756824 4.30806361 7.10756824 6 9.1875 C6.8353125 10.26064453 6.8353125 10.26064453 7.6875 11.35546875 C8.120625 11.89816406 8.55375 12.44085937 9 13 C4.02790438 11.23570801 -0.43438061 8.6060834 -5 6 C-4.34 5.67 -3.68 5.34 -3 5 C-3 4.34 -3 3.68 -3 3 C-2.34 3 -1.68 3 -1 3 C-0.67 2.01 -0.34 1.02 0 0 Z " transform="translate(578,540)" style="fill: #04293C;"/><path d="M0 0 C0.99 0.33 1.98 0.66 3 1 C1.92621094 1.60328125 0.85242188 2.2065625 -0.25390625 2.828125 C-1.69011144 3.63540373 -3.12630894 4.44269613 -4.5625 5.25 C-5.26697266 5.64574219 -5.97144531 6.04148437 -6.69726562 6.44921875 C-7.39658203 6.84238281 -8.09589844 7.23554687 -8.81640625 7.640625 C-9.5139502 8.03056641 -10.21149414 8.42050781 -10.93017578 8.82226562 C-12.30412018 9.60404291 -13.66743534 10.40481931 -15.01904297 11.22460938 C-16.64702151 12.20553292 -18.32037037 13.11041054 -20 14 C-20.66 13.67 -21.32 13.34 -22 13 C-18.17426382 9.55683744 -14.10012247 7.4478233 -9.50390625 5.2421875 C-7.27279153 4.13533184 -5.18129216 2.92956417 -3.0625 1.625 C-2.051875 1.08875 -1.04125 0.5525 0 0 Z " transform="translate(331,512)" style="fill: #08202D;"/><path d="M0 0 C-3.14409606 2.66038897 -6.12513731 3.7083791 -10 5 C-10.33 5.66 -10.66 6.32 -11 7 C-13.875 8.6875 -13.875 8.6875 -17 10 C-17.99 9.67 -18.98 9.34 -20 9 C-16.25 6 -16.25 6 -14 6 C-13.34 4.35 -12.68 2.7 -12 1 C-11.67 1.66 -11.34 2.32 -11 3 C-10.113125 2.505 -9.22625 2.01 -8.3125 1.5 C-5.12413762 0.05621326 -3.41812454 -0.30159922 0 0 Z " transform="translate(439,551)" style="fill: #0A3141;"/><path d="M0 0 C1.32 0 2.64 0 4 0 C4 0.66 4 1.32 4 2 C6.97 2.99 9.94 3.98 13 5 C13 5.33 13 5.66 13 6 C11.35 6 9.7 6 8 6 C8 5.34 8 4.68 8 4 C7.34 4.66 6.68 5.32 6 6 C6.66 6.33 7.32 6.66 8 7 C7.67 7.99 7.34 8.98 7 10 C7 9.34 7 8.68 7 8 C6.21625 7.690625 5.4325 7.38125 4.625 7.0625 C2 6 2 6 0 5 C0 3.35 0 1.7 0 0 Z " transform="translate(459,478)" style="fill: #043449;"/><path d="M0 0 C0 0.99 0 1.98 0 3 C-0.7425 3.2475 -1.485 3.495 -2.25 3.75 C-5.08542618 4.83670566 -5.08542618 4.83670566 -7 7.0625 C-9.32902075 9.31873885 -10.82861733 9.64762415 -14 10 C-12.68 9.01 -11.36 8.02 -10 7 C-11.32 6.34 -12.64 5.68 -14 5 C-13.07767578 4.70996094 -13.07767578 4.70996094 -12.13671875 4.4140625 C-11.32847656 4.15367187 -10.52023437 3.89328125 -9.6875 3.625 C-8.88699219 3.36976563 -8.08648438 3.11453125 -7.26171875 2.8515625 C-4.5837389 1.84327302 -2.90042778 0 0 0 Z " transform="translate(538,494)" style="fill: #003853;"/><path d="M0 0 C0.99 0 1.98 0 3 0 C2.65120368 3.25543229 1.97866739 4.01873107 -0.5625 6.25 C-1.366875 6.8275 -2.17125 7.405 -3 8 C-5.475 7.01 -5.475 7.01 -8 6 C-8 5.34 -8 4.68 -8 4 C-5.35261084 2.5393715 -4.10551666 2 -1 2 C-0.67 1.34 -0.34 0.68 0 0 Z " transform="translate(552,555)" style="fill: #194B5F;"/><path d="M0 0 C2.64 0.33 5.28 0.66 8 1 C8.061875 1.61875 8.12375 2.2375 8.1875 2.875 C8.78966756 5.19579083 8.78966756 5.19579083 11.0625 5.9375 C12.5165625 6.4634375 12.5165625 6.4634375 14 7 C16.71891412 8.58603324 19.36124389 10.28448114 22 12 C21.01 12.495 21.01 12.495 20 13 C17.67000998 11.84396649 15.47870796 10.64097572 13.25 9.3125 C12.6415625 8.95994141 12.033125 8.60738281 11.40625 8.24414062 C7.50779117 5.96587462 3.69287699 3.59974009 0 1 C0 0.67 0 0.34 0 0 Z " transform="translate(528,520)" style="fill: #54A1B6;"/><path d="M0 0 C8.68965517 3.37931034 8.68965517 3.37931034 10 6 C10.99 6.33 11.98 6.66 13 7 C13 7.66 13 8.32 13 9 C12.01 9.33 11.02 9.66 10 10 C10 9.34 10 8.68 10 8 C9.2575 8.04125 8.515 8.0825 7.75 8.125 C4.91241048 7.99601866 3.41226062 7.42948778 1 6 C1.99 5.67 2.98 5.34 4 5 C4 4.34 4 3.68 4 3 C3.01 3 2.02 3 1 3 C0.67 2.01 0.34 1.02 0 0 Z " transform="translate(610,495)" style="fill: #053248;"/><path d="M0 0 C2.97 0 5.94 0 9 0 C6.51072979 2.48927021 5.20833511 3.57833247 2.20703125 5.04296875 C1.49482422 5.39423828 0.78261719 5.74550781 0.04882812 6.10742188 C-0.68916016 6.46384766 -1.42714844 6.82027344 -2.1875 7.1875 C-2.93708984 7.55552734 -3.68667969 7.92355469 -4.45898438 8.30273438 C-6.30332212 9.20728218 -8.15131245 10.10437576 -10 11 C-10 10.34 -10 9.68 -10 9 C-9.44570313 8.76925781 -8.89140625 8.53851563 -8.3203125 8.30078125 C-3.56768485 6.25432116 -3.56768485 6.25432116 -0.5 2.25 C-0.335 1.5075 -0.17 0.765 0 0 Z " transform="translate(650,497)" style="fill: #295E71;"/><path d="M0 0 C0.66 0.33 1.32 0.66 2 1 C2 1.99 2 2.98 2 4 C0.39967863 4.84069415 -1.20541171 5.67231505 -2.8125 6.5 C-4.15248047 7.19609375 -4.15248047 7.19609375 -5.51953125 7.90625 C-8 9 -8 9 -11 9 C-10 6 -10 6 -8.22265625 4.90234375 C-7.50980469 4.58394531 -6.79695313 4.26554688 -6.0625 3.9375 C-3.49112901 2.77548298 -2.02316022 2.02316022 0 0 Z " transform="translate(418,559)" style="fill: #062432;"/><path d="M0 0 C5.73471037 1.34216626 11.30274703 3.351061 16 7 C16.7578125 9.1640625 16.7578125 9.1640625 17 11 C10.99399742 8.16079878 5.32143097 5.00339136 0 1 C0 0.67 0 0.34 0 0 Z " transform="translate(592,558)" style="fill: #153343;"/><path d="M0 0 C1.32 0.33 2.64 0.66 4 1 C4.33 2.98 4.66 4.96 5 7 C2.03 7 -0.94 7 -4 7 C-3.34 5.68 -2.68 4.36 -2 3 C-1.34 3 -0.68 3 0 3 C0 2.01 0 1.02 0 0 Z " transform="translate(510,500)" style="fill: #012235;"/><path d="M0 0 C-0.804375 0.45375 -1.60875 0.9075 -2.4375 1.375 C-5.08856572 2.74725665 -5.08856572 2.74725665 -6 5 C-6.66 5 -7.32 5 -8 5 C-8.33 5.66 -8.66 6.32 -9 7 C-9.99 6.67 -10.98 6.34 -12 6 C-12 6.66 -12 7.32 -12 8 C-13.98 8.33 -15.96 8.66 -18 9 C-15.39158815 6.06553667 -12.36193398 4.24408829 -9 2.25 C-7.948125 1.61578125 -6.89625 0.9815625 -5.8125 0.328125 C-3 -1 -3 -1 0 0 Z " transform="translate(677,488)" style="fill: #255A6E;"/><path d="M0 0 C5.75 0.875 5.75 0.875 8 2 C8 2.66 8 3.32 8 4 C7.01 4 6.02 4 5 4 C8.465 5.98 8.465 5.98 12 8 C9 9 9 9 6.73828125 8.00390625 C5.93777344 7.52824219 5.13726563 7.05257813 4.3125 6.5625 C3.50425781 6.08941406 2.69601562 5.61632812 1.86328125 5.12890625 C1.24839844 4.75636719 0.63351562 4.38382812 0 4 C0 2.68 0 1.36 0 0 Z " transform="translate(765,462)" style="fill: #022839;"/><path d="M0 0 C0.33 0.99 0.66 1.98 1 3 C2.32 2.67 3.64 2.34 5 2 C3.66876597 4.66246807 2.3235622 4.94601652 -0.375 6.125 C-1.16648437 6.47820313 -1.95796875 6.83140625 -2.7734375 7.1953125 C-5 8 -5 8 -8 8 C-8 7.01 -8 6.02 -8 5 C-6.68 5 -5.36 5 -4 5 C-4 4.01 -4 3.02 -4 2 C-2.68 2 -1.36 2 0 2 C0 1.34 0 0.68 0 0 Z " transform="translate(530,566)" style="fill: #0E4458;"/><path d="M0 0 C0.66 0 1.32 0 2 0 C2 0.99 2 1.98 2 3 C0.21385682 4.03046722 -1.57910018 5.04913236 -3.375 6.0625 C-4.87160156 6.91521484 -4.87160156 6.91521484 -6.3984375 7.78515625 C-7.25695312 8.18605469 -8.11546875 8.58695313 -9 9 C-9.66 8.67 -10.32 8.34 -11 8 C-11 7.01 -11 6.02 -11 5 C-7.38026598 3.68373308 -4.90432869 3 -1 3 C-0.67 2.01 -0.34 1.02 0 0 Z " transform="translate(441,544)" style="fill: #022B43;"/><path d="M0 0 C2.97 0.495 2.97 0.495 6 1 C6 1.66 6 2.32 6 3 C7.3921875 3.185625 7.3921875 3.185625 8.8125 3.375 C12 4 12 4 15 6 C14.67 6.66 14.34 7.32 14 8 C10.04 6.35 6.08 4.7 2 3 C2 2.34 2 1.68 2 1 C1.34 0.67 0.68 0.34 0 0 Z M12 8 C12.99 8.495 12.99 8.495 14 9 C13.01 9.495 13.01 9.495 12 10 C12 9.34 12 8.68 12 8 Z M8 10 C9.32 10 10.64 10 12 10 C11.67 10.66 11.34 11.32 11 12 C10.01 11.34 9.02 10.68 8 10 Z " transform="translate(708,432)" style="fill: #002739;"/><path d="M0 0 C0.66 0.33 1.32 0.66 2 1 C1.67 1.66 1.34 2.32 1 3 C2.98 2.34 4.96 1.68 7 1 C4.50003341 3.9777759 1.95288929 4.94548483 -1.6875 6.1875 C-2.68136719 6.53167969 -3.67523438 6.87585938 -4.69921875 7.23046875 C-5.45847656 7.48441406 -6.21773438 7.73835937 -7 8 C-7 7.01 -7 6.02 -7 5 C-6.01 5 -5.02 5 -4 5 C-3.67 4.01 -3.34 3.02 -3 2 C-2.01 2 -1.02 2 0 2 C0 1.34 0 0.68 0 0 Z " transform="translate(466,530)" style="fill: #18546B;"/><path d="M0 0 C0 0.99 0 1.98 0 3 C-1.65 3 -3.3 3 -5 3 C-5 3.99 -5 4.98 -5 6 C-6.32 6.33 -7.64 6.66 -9 7 C-9 6.34 -9 5.68 -9 5 C-9.99 4.67 -10.98 4.34 -12 4 C-10.75539217 3.32332002 -9.50403104 2.65905281 -8.25 2 C-7.55390625 1.62875 -6.8578125 1.2575 -6.140625 0.875 C-4 0 -4 0 0 0 Z " transform="translate(576,474)" style="fill: #024356;"/><path d="M0 0 C2.86724686 0.57344937 3.8614515 0.8614515 6 3 C4.02 3.99 4.02 3.99 2 5 C2 3.68 2 2.36 2 1 C1.34 0.67 0.68 0.34 0 0 Z M-2 4 C-0.68 4.66 0.64 5.32 2 6 C1.67 6.66 1.34 7.32 1 8 C0.34 8 -0.32 8 -1 8 C-1 8.66 -1 9.32 -1 10 C-1.99 10 -2.98 10 -4 10 C-3.34 8.02 -2.68 6.04 -2 4 Z " transform="translate(541,560)" style="fill: #01253C;"/><path d="M0 0 C0.99 0.66 1.98 1.32 3 2 C0.87767021 3.17176518 -1.24757791 4.33754785 -3.375 5.5 C-3.97828125 5.83386719 -4.5815625 6.16773438 -5.203125 6.51171875 C-9.7734375 9 -9.7734375 9 -12 9 C-12 8.34 -12 7.68 -12 7 C-11.34 7 -10.68 7 -10 7 C-10 6.34 -10 5.68 -10 5 C-6.7 3.35 -3.4 1.7 0 0 Z " transform="translate(497,514)" style="fill: #00374B;"/><path d="M0 0 C0.66 0 1.32 0 2 0 C2.08226668 3.04386724 1.97608217 5.07175348 1 8 C0.01 8.33 -0.98 8.66 -2 9 C-2.99 8.01 -3.98 7.02 -5 6 C-4.67 5.01 -4.34 4.02 -4 3 C-1.9375 2.3125 -1.9375 2.3125 0 2 C0 1.34 0 0.68 0 0 Z " transform="translate(490,510)" style="fill: #002031;"/><path d="M0 0 C5.44567686 1.02862785 10.11817117 2.24614784 15 5 C14.01 6.485 14.01 6.485 13 8 C12.34 8 11.68 8 11 8 C11 7.34 11 6.68 11 6 C9.948125 5.5978125 9.948125 5.5978125 8.875 5.1875 C5.8350176 3.9318551 2.9272226 2.49764877 0 1 C0 0.67 0 0.34 0 0 Z " transform="translate(766,464)" style="fill: #0B384C;"/><path d="M0 0 C1.32 0.66 2.64 1.32 4 2 C0.04 3.98 -3.92 5.96 -8 8 C-8.33 6.68 -8.66 5.36 -9 4 C-6 3 -6 3 -3 3 C-1.31201173 1.56249809 -1.31201173 1.56249809 0 0 Z " transform="translate(667,488)" style="fill: #002538;"/><path d="M0 0 C2.475 0.99 2.475 0.99 5 2 C5 2.66 5 3.32 5 4 C5.66 4 6.32 4 7 4 C7 4.66 7 5.32 7 6 C5.35 6.33 3.7 6.66 2 7 C0.4375 4.625 0.4375 4.625 -1 2 C-0.67 1.34 -0.34 0.68 0 0 Z " transform="translate(456,553)" style="fill: #153648;"/><path d="M0 0 C0.66 0.33 1.32 0.66 2 1 C1.01 2.485 1.01 2.485 0 4 C0.66 4 1.32 4 2 4 C2 4.66 2 5.32 2 6 C1.4225 5.814375 0.845 5.62875 0.25 5.4375 C-2.23698179 4.95392021 -3.58585878 5.37699581 -6 6 C-6.99 5.67 -7.98 5.34 -9 5 C-7.54735962 4.1361871 -6.0876837 3.28419546 -4.625 2.4375 C-3.40683594 1.72400391 -3.40683594 1.72400391 -2.1640625 0.99609375 C-1.44992187 0.66738281 -0.73578125 0.33867188 0 0 Z " transform="translate(448,545)" style="fill: #09374B;"/><path d="M0 0 C0.99 0.33 1.98 0.66 3 1 C2.38511719 1.40992188 1.77023437 1.81984375 1.13671875 2.2421875 C0.32847656 2.78101563 -0.47976563 3.31984375 -1.3125 3.875 C-3.875 5.58333333 -6.4375 7.29166667 -9 9 C-9.99 8.67 -10.98 8.34 -12 8 C-11.46890625 7.67386719 -10.9378125 7.34773437 -10.390625 7.01171875 C-5.91030317 4.25346934 -5.91030317 4.25346934 -1.6875 1.125 C-1.130625 0.75375 -0.57375 0.3825 0 0 Z " transform="translate(289,535)" style="fill: #0A1E2C;"/><path d="M0 0 C0.99 0.33 1.98 0.66 3 1 C1.9024777 3.99324263 1.32317108 4.84610901 -1.625 6.25 C-2.40875 6.4975 -3.1925 6.745 -4 7 C-3.6875 4.625 -3.6875 4.625 -3 2 C-2.01 1.34 -1.02 0.68 0 0 Z " transform="translate(283,520)" style="fill: #071B29;"/><path d="M0 0 C0.99 0 1.98 0 3 0 C3 0.66 3 1.32 3 2 C4.32 2 5.64 2 7 2 C6.67 3.32 6.34 4.64 6 6 C4.35 6.33 2.7 6.66 1 7 C1.33 5.68 1.66 4.36 2 3 C1.34 3 0.68 3 0 3 C0 2.01 0 1.02 0 0 Z " transform="translate(629,507)" style="fill: #245061;"/><path d="M0 0 C0.66 0.33 1.32 0.66 2 1 C-2.30972626 5.09949571 -4.85310727 6.63118644 -11 7 C-7.53252172 4.22601737 -3.93597489 2.04087587 0 0 Z " transform="translate(691,479)" style="fill: #01263C;"/><path d="M0 0 C0.81210937 0.33837891 0.81210937 0.33837891 1.640625 0.68359375 C-0.48170479 1.85535893 -2.60695291 3.0211416 -4.734375 4.18359375 C-5.33765625 4.51746094 -5.9409375 4.85132813 -6.5625 5.1953125 C-11.1328125 7.68359375 -11.1328125 7.68359375 -13.359375 7.68359375 C-13.359375 7.02359375 -13.359375 6.36359375 -13.359375 5.68359375 C-11.61814951 4.64786479 -9.86600905 3.63046855 -8.109375 2.62109375 C-6.64757812 1.76837891 -6.64757812 1.76837891 -5.15625 0.8984375 C-2.359375 -0.31640625 -2.359375 -0.31640625 0 0 Z " transform="translate(480.359375,525.31640625)" style="fill: #01374D;"/><path d="M0 0 C0.66 0.33 1.32 0.66 2 1 C0.23754778 2.1999038 -1.53526981 3.38459517 -3.3125 4.5625 C-4.79169922 5.55443359 -4.79169922 5.55443359 -6.30078125 6.56640625 C-7.19152344 7.03949219 -8.08226562 7.51257813 -9 8 C-9.99 7.67 -10.98 7.34 -12 7 C-10.37554381 6.01993141 -8.75041739 5.04097364 -7.125 4.0625 C-6.22007812 3.51722656 -5.31515625 2.97195313 -4.3828125 2.41015625 C-2.94798364 1.56101983 -1.49124552 0.74562276 0 0 Z " transform="translate(244,560)" style="fill: #0D1A26;"/><path d="M0 0 C-3.96 1.98 -7.92 3.96 -12 6 C-12.33 5.01 -12.66 4.02 -13 3 C-11.40084119 2.30093058 -9.79544955 1.61610532 -8.1875 0.9375 C-7.29417969 0.55464844 -6.40085937 0.17179687 -5.48046875 -0.22265625 C-3 -1 -3 -1 0 0 Z " transform="translate(527,501)" style="fill: #014058;"/><path d="M0 0 C4.75 0.75 4.75 0.75 7 3 C7 3.99 7 4.98 7 6 C5.68 6 4.36 6 3 6 C3 5.01 3 4.02 3 3 C2.01 3 1.02 3 0 3 C0 2.01 0 1.02 0 0 Z " transform="translate(584,482)" style="fill: #185E74;"/><path d="M0 0 C3.9492568 0.55105909 7.34920174 1.38935371 11 3 C10.67 3.99 10.34 4.98 10 6 C9.01 6 8.02 6 7 6 C7 5.34 7 4.68 7 4 C6.401875 3.896875 5.80375 3.79375 5.1875 3.6875 C2.71756736 2.91123545 1.67748765 1.92911079 0 0 Z " transform="translate(470,563)" style="fill: #214A5C;"/><path d="M0 0 C-0.99 0.495 -0.99 0.495 -2 1 C-3.13350534 3.01669827 -3.13350534 3.01669827 -4 5 C-5.65 5 -7.3 5 -9 5 C-9 4.34 -9 3.68 -9 3 C-8.34 3 -7.68 3 -7 3 C-6.67 2.01 -6.34 1.02 -6 0 C-3.50907189 -1.24546405 -2.58919267 -0.7767578 0 0 Z " transform="translate(435,555)" style="fill: #032334;"/><path d="M0 0 C-3.56741255 2.48889248 -6.89041233 4.54955729 -11 6 C-9.90648447 2.82880497 -8.9873012 1.99216457 -6.0625 0.1875 C-3 -1 -3 -1 0 0 Z " transform="translate(352,514)" style="fill: #08202E;"/><path d="M0 0 C0.99 0 1.98 0 3 0 C2.75 1.875 2.75 1.875 2 4 C-0.58152302 5.72101535 -1.84918025 6 -5 6 C-4.67 5.01 -4.34 4.02 -4 3 C-3.01 3 -2.02 3 -1 3 C-0.67 2.01 -0.34 1.02 0 0 Z " transform="translate(544,489)" style="fill: #0F4E6E;"/><path d="M0 0 C1.32 0 2.64 0 4 0 C4 0.99 4 1.98 4 3 C2.68 3 1.36 3 0 3 C0 3.66 0 4.32 0 5 C-1.32 5 -2.64 5 -4 5 C-4 4.01 -4 3.02 -4 2 C-2.68 2 -1.36 2 0 2 C0 1.34 0 0.68 0 0 Z " transform="translate(553,484)" style="fill: #114C68;"/><path d="M0 0 C1.32 0 2.64 0 4 0 C4 0.99 4 1.98 4 3 C1.09399739 4.25664978 -0.79604584 5 -4 5 C-4 4.01 -4 3.02 -4 2 C-2.68 2 -1.36 2 0 2 C0 1.34 0 0.68 0 0 Z " transform="translate(560,550)" style="fill: #1A5668;"/><path d="M0 0 C0.66 0.66 1.32 1.32 2 2 C1.625 4.125 1.625 4.125 1 6 C-1.31 5.67 -3.62 5.34 -6 5 C-5.67 4.34 -5.34 3.68 -5 3 C-4.01 3 -3.02 3 -2 3 C-1.67 2.34 -1.34 1.68 -1 1 C-0.67 0.67 -0.34 0.34 0 0 Z " transform="translate(437,536)" style="fill: #0A2836;"/><path d="M0 0 C2.38564077 0.57584432 4.66682784 1.22227595 7 2 C7 2.99 7 3.98 7 5 C4.03 4.505 4.03 4.505 1 4 C0.67 2.68 0.34 1.36 0 0 Z " transform="translate(490,574)" style="fill: #1C465B;"/><path d="M0 0 C1.32 0 2.64 0 4 0 C3.67 1.32 3.34 2.64 3 4 C0.92446352 4.5534764 -0.84365964 5 -3 5 C-3 4.01 -3 3.02 -3 2 C-2.01 2 -1.02 2 0 2 C0 1.34 0 0.68 0 0 Z " transform="translate(534,564)" style="fill: #1C586E;"/><path d="M0 0 C0.99 0.33 1.98 0.66 3 1 C-3.75 5 -3.75 5 -6 5 C-6 5.66 -6 6.32 -6 7 C-6.99 6.67 -7.98 6.34 -9 6 C-7.57140593 4.96674014 -6.13177617 3.94872366 -4.6875 2.9375 C-3.88699219 2.36902344 -3.08648437 1.80054688 -2.26171875 1.21484375 C-1.51535156 0.81394531 -0.76898438 0.41304687 0 0 Z " transform="translate(304,527)" style="fill: #0A1E2C;"/><path d="M0 0 C-0.33 1.65 -0.66 3.3 -1 5 C-2.32 5 -3.64 5 -5 5 C-5.33 3.68 -5.66 2.36 -6 1 C-3 0 -3 0 0 0 Z " transform="translate(632,513)" style="fill: #0A2435;"/><path d="M0 0 C0 1.32 0 2.64 0 4 C-0.66 4 -1.32 4 -2 4 C-2.33 3.01 -2.66 2.02 -3 1 C-4.98 1.99 -4.98 1.99 -7 3 C-5.51127558 -1.46617326 -4.10580088 -1.23174026 0 0 Z " transform="translate(298,606)" style="fill: #032433;"/><path d="M0 0 C-4.625 4 -4.625 4 -8 4 C-7.1875 2.0625 -7.1875 2.0625 -6 0 C-3 -1 -3 -1 0 0 Z " transform="translate(402,572)" style="fill: #052131;"/><path d="M0 0 C3.0625 1.25 3.0625 1.25 6 3 C6.33 3.99 6.66 4.98 7 6 C3.54074837 4.7508258 0.85306797 3.32472205 -2 1 C-1.34 0.67 -0.68 0.34 0 0 Z " transform="translate(554,532)" style="fill: #003247;"/><path d="M0 0 C0 0.66 0 1.32 0 2 C-3.37097383 3.49821059 -5.20442119 4 -9 4 C-9 3.34 -9 2.68 -9 2 C-5.62902617 0.50178941 -3.79557881 0 0 0 Z " transform="translate(764,515)" style="fill: #10232F;"/><path d="M0 0 C0 0.99 0 1.98 0 3 C-5.75 6 -5.75 6 -8 6 C-6.72879117 2.18637351 -4.19078006 0 0 0 Z " transform="translate(538,494)" style="fill: #28819B;"/><path d="M0 0 C0 0.66 0 1.32 0 2 C-1.28650706 2.69710731 -2.57940665 3.38242876 -3.875 4.0625 C-4.95394531 4.63677734 -4.95394531 4.63677734 -6.0546875 5.22265625 C-7.01761719 5.60744141 -7.01761719 5.60744141 -8 6 C-8.66 5.67 -9.32 5.34 -10 5 C-9.01 4.67 -8.02 4.34 -7 4 C-7 3.34 -7 2.68 -7 2 C-4.35261084 0.5393715 -3.10551666 0 0 0 Z " transform="translate(697,475)" style="fill: #1D566B;"/><path d="M0 0 C0.99 0 1.98 0 3 0 C3 1.32 3 2.64 3 4 C0.69 4.33 -1.62 4.66 -4 5 C-4 4.34 -4 3.68 -4 3 C-3.01 3 -2.02 3 -1 3 C-0.67 2.01 -0.34 1.02 0 0 Z " transform="translate(729,532)" style="fill: #0F2532;"/><path d="M0 0 C0.99 0 1.98 0 3 0 C3 0.66 3 1.32 3 2 C4.65 2.33 6.3 2.66 8 3 C8 3.66 8 4.32 8 5 C6.02 5 4.04 5 2 5 C2 4.01 2 3.02 2 2 C1.34 2 0.68 2 0 2 C0 1.34 0 0.68 0 0 Z " transform="translate(241,528)" style="fill: #152430;"/><path d="M0 0 C2.97 0.495 2.97 0.495 6 1 C6 1.99 6 2.98 6 4 C4.35 3.67 2.7 3.34 1 3 C0.67 2.01 0.34 1.02 0 0 Z " transform="translate(489,497)" style="fill: #22596E;"/><path d="M0 0 C-1.65 0.66 -3.3 1.32 -5 2 C-5 2.66 -5 3.32 -5 4 C-5.99 4 -6.98 4 -8 4 C-8 3.01 -8 2.02 -8 1 C-3.375 -1.125 -3.375 -1.125 0 0 Z " transform="translate(713,545)" style="fill: #0D2533;"/><path d="M0 0 C2.38564077 0.57584432 4.66682784 1.22227595 7 2 C7 2.66 7 3.32 7 4 C6.01 4.33 5.02 4.66 4 5 C4 4.34 4 3.68 4 3 C2.68 3 1.36 3 0 3 C0 2.01 0 1.02 0 0 Z " transform="translate(616,500)" style="fill: #2C6678;"/><path d="M0 0 C0.99 0.33 1.98 0.66 3 1 C3 1.66 3 2.32 3 3 C0.69 3.66 -1.62 4.32 -4 5 C-3 2 -3 2 0 0 Z " transform="translate(656,500)" style="fill: #021E31;"/><path d="M0 0 C0 1.65 0 3.3 0 5 C-0.99 5.495 -0.99 5.495 -2 6 C-2 5.01 -2 4.02 -2 3 C-3.32 2.67 -4.64 2.34 -6 2 C-3 0 -3 0 0 0 Z " transform="translate(559,481)" style="fill: #00273E;"/><path d="M0 0 C-3.20336822 2.83374881 -5.78087253 3.5205537 -10 4 C-6.66064924 0.50886057 -4.84725717 -0.1275594 0 0 Z " transform="translate(439,551)" style="fill: #1A6A81;"/><path d="M0 0 C0.99 0 1.98 0 3 0 C3 1.98 3 3.96 3 6 C2.01 6 1.02 6 0 6 C0 4.02 0 2.04 0 0 Z " transform="translate(565,544)" style="fill: #144456;"/><path d="M0 0 C0.66 0.33 1.32 0.66 2 1 C-0.36292656 3.52588702 -1.66462511 4.88820837 -5 6 C-5.66 5.34 -6.32 4.68 -7 4 C-1.7265625 0.77734375 -1.7265625 0.77734375 0 0 Z " transform="translate(457,540)" style="fill: #00374B;"/><path d="M0 0 C0.66 0.33 1.32 0.66 2 1 C1.67 2.32 1.34 3.64 1 5 C-0.65 4.67 -2.3 4.34 -4 4 C-4 3.34 -4 2.68 -4 2 C-2.125 0.9375 -2.125 0.9375 0 0 Z " transform="translate(517,507)" style="fill: #003A4E;"/><path d="M0 0 C0.33 1.32 0.66 2.64 1 4 C-0.98 4.99 -2.96 5.98 -5 7 C-5 6.01 -5 5.02 -5 4 C-4.01 4 -3.02 4 -2 4 C-2 3.34 -2 2.68 -2 2 C-1.34 2 -0.68 2 0 2 C0 1.34 0 0.68 0 0 Z " transform="translate(505,508)" style="fill: #01384F;"/><path d="M0 0 C0.99 0 1.98 0 3 0 C3 0.66 3 1.32 3 2 C4.32 2.33 5.64 2.66 7 3 C7 3.66 7 4.32 7 5 C4.69 4.34 2.38 3.68 0 3 C0 2.01 0 1.02 0 0 Z " transform="translate(481,492)" style="fill: #276E86;"/></svg>